<svg version="1.1" id="Layer_1" xmlns="http://www.w3.org/2000/svg" x="0" y="0" viewBox="0 0 576.4 577.7" xml:space="preserve"><style>.st0{fill:#1a1a1a}</style><path class="st0" d="M496 256.6h-84.2c.9-3.8 1.4-7.4 1.4-10.8V13.3c0-5.4-4.4-9.9-9.9-9.9H172.8c-5.4 0-9.9 4.4-9.9 9.9v232.6c0 3.4.5 6.9 1.4 10.8h-84c-5.4 0-9.9 4.4-9.9 9.9V539.2c0 5.4 4.4 9.9 9.9 9.9h53.9c4.3 14.8 18 25.2 33.6 25.2 15.7 0 29.3-10.4 33.6-25.2h173.2c4.3 14.8 18 25.2 33.6 25.2 15.7 0 29.3-10.4 33.6-25.2h53.8c5.4 0 9.9-4.4 9.9-9.9V345.3c.1-.5.3-1.2.3-2.1v-76.8c.1-5.4-4.3-9.8-9.8-9.8zm4.6 6.3c0-.1-.1-.1-.1-.2.1.1.1.1.1.2zm-4.6-2.3c.8 0 1.6.2 2.3.5-.7-.3-1.4-.5-2.3-.5zM420.1 549c-2.9 3.4-7.1 5.5-11.8 5.5-4.7 0-9-2.1-11.8-5.5h23.6zm-23.4 5.8c2.4 1.8 5.3 3.1 8.4 3.6-3.1-.6-5.9-1.8-8.4-3.6-3.2-2.4-5.7-5.8-6.9-9.7 1.3 3.9 3.7 7.2 6.9 9.7zm23.2 0c-.8.6-1.7 1.1-2.6 1.6.9-.5 1.8-1 2.6-1.6zm4.2-4.3c.6-.8 1.1-1.7 1.6-2.6-.5.9-1 1.7-1.6 2.6-.6.8-1.2 1.6-1.9 2.3.6-.7 1.3-1.5 1.9-2.3zm-256.2 4.1c-4.7 0-9-2.1-11.8-5.5h23.6c-2.9 3.4-7.1 5.5-11.8 5.5zm-17.4-6.7c.9 1.8 2.1 3.5 3.5 4.9-1.4-1.5-2.5-3.1-3.5-4.9-.5-.9-.8-1.9-1.2-2.8.4.9.8 1.9 1.2 2.8zm-60.3-18.6V353.2h188v176.2h-188zm-4 4V349.1v184.2zm323.1-287.9c0 .1 0 .1 0 0 0 .7 0 1.4-.1 2.1 0-.6.1-1.3.1-2.1 0 .1 0 .1 0 0zm-55.6-25.6c-.2-.4-.4-.8-.6-1.1.2.3.5.7.6 1.1.3.7.5 1.5.5 2.3s-.2 1.6-.5 2.3c.3-.7.5-1.5.5-2.3s-.2-1.6-.5-2.3zm-1.8-2.4c.1.1.3.2.4.3-.2-.1-.3-.2-.4-.3zm.6 8.8c-.3.3-.6.5-.9.7.3-.2.6-.4.9-.7zm-33.1-2.4c-.1-.4-.2-.7-.2-1.1 0 .4.1.7.2 1.1zm.6 1.3c-.2-.3-.3-.5-.4-.8.1.3.3.6.4.8zm-7.8-76.7c1.2-.5 2.4-.9 3.6-1.2 2.1-.5 4.3-.8 6.5-.8s4.4.3 6.5.8c1.1.3 2.2.7 3.3 1.1-1.1-.4-2.1-.8-3.3-1.1-2.1-.5-4.2-.8-6.5-.8s-4.4.3-6.5.8c-1.2.3-2.4.7-3.6 1.2-3.5 1.5-6.6 3.7-9.1 6.5 2.5-2.8 5.6-5 9.1-6.5zm45.2 28.7c-.3.2-.6.4-1 .5-.7.3-1.5.5-2.3.5s-1.6-.2-2.3-.5c-.4-.1-.7-.3-1-.5.3.2.6.4 1 .5.7.3 1.5.5 2.3.5s1.6-.2 2.3-.5c.3-.1.7-.3 1-.5zm-4.9-27.3c.7 1 1.4 2 2 3-.6-1-1.3-2-2-3zm-3.6-4.1c.4.4.8.9 1.2 1.3-.3-.4-.8-.9-1.2-1.3zm-5.1 12.1zm-4.4-19c.5.2.9.5 1.4.8-.5-.3-.9-.5-1.4-.8zm1.3 15.2c-2.2-2.2-4.8-4-7.7-5.3 2.8 1.3 5.4 3.1 7.7 5.3zm-7.2-17.6c1.2.4 2.3.8 3.5 1.3-1.2-.5-2.4-.9-3.5-1.3zm-31.2 19.4c-.5.6-1 1.3-1.5 2 .4-.7.9-1.3 1.5-2zm-45.7 68.5c-.2.5-.5 1-.9 1.4.3-.4.6-.8.9-1.4zm.4-1.6c0 .4-.1.8-.2 1.1.1-.4.1-.7.2-1.1zm-34.7 1.1c-.1-.4-.2-.7-.2-1.1 0 .4 0 .7.2 1.1zm1.4 2.4zm-.5-7.7c0-.1.1-.1.1-.2 0 0 0 .1-.1.2zm89.6 90.1l-6.9.9 6.9-.9c2.3-.3 4.6-.7 6.8-1.1-2.2.4-4.5.7-6.8 1.1zM213 292.4c-1.5-.8-2.9-1.7-4.2-2.5 1.3.8 2.7 1.7 4.2 2.5 3.2 1.8 6.5 3.4 9.9 5-3.5-1.6-6.8-3.2-9.9-5zm127.8 5.4c-16.4 5.6-34.6 8.5-52.8 8.6-22.5 0-45.1-4.5-63.5-12.7-18-8-31.5-19.2-37.8-31.6-1.1-2.3-2-4.6-2.7-6.9h208.1c-.7 2.3-1.5 4.5-2.6 6.8-7.6 15-24.9 27.7-48.7 35.8zm-150.2-23c1 1.2 2.1 2.4 3.3 3.5-1.1-1.1-2.2-2.3-3.3-3.5zm80.1 34.7c-.3 0-.5-.1-.8-.1.3.1.6.1.8.1zm-8.4-1c-.4-.1-.8-.1-1.2-.2.4.1.8.1 1.2.2zm-12-2.3c-1.6-.4-3.3-.8-4.9-1.2 1.6.5 3.2.9 4.9 1.2zm141.1-39.4c.5-.8.9-1.5 1.3-2.3-.4.8-.8 1.6-1.3 2.3-.8 1.4-1.7 2.7-2.7 4 1-1.3 1.9-2.6 2.7-4zm-5.4 7.5c-.5.6-1.1 1.3-1.7 1.9.6-.7 1.2-1.3 1.7-1.9zm-202.9-10.4c-.5-1-1-2.1-1.4-3.2.5 1.1.9 2.2 1.4 3.2zm32.8 43.2c.3.1.6.3.9.5-.3-.2-.6-.4-.9-.5-3.6-1.7-7-3.4-10.2-5.3 3.2 1.9 6.6 3.6 10.2 5.3zm32.3 10.7c.3.1.7.2 1 .3-.3-.2-.6-.2-1-.3-2.6-.6-5.3-1.2-7.8-1.9 2.6.7 5.2 1.3 7.8 1.9zm39.8 4.3h.1c.9 0 1.8-.1 2.8-.1 4.1-.1 8.2-.2 12.3-.5-4 .3-8.1.4-12.3.5-.9 0-1.8.1-2.8.1h-.1a172.159 172.159 0 0 0 0 0zm37.5-3.7c1.3-.3 2.5-.6 3.7-.9s2.4-.7 3.6-1c.8-.2 1.7-.4 2.5-.6 1.7-.4 3.4-.8 5-1.3.8-.2 1.6-.5 2.4-.7.1 0 .3-.1.4-.1-.1 0-.3.1-.4.1-.8.3-1.6.5-2.4.7-1.6.5-3.3.9-5 1.3-.8.2-1.7.4-2.5.6-1.2.3-2.4.6-3.6 1-1.2.3-2.4.6-3.7.9-2.6.5-5.3.9-8.1 1.3 2.8-.4 5.5-.8 8.1-1.3zm23.6-6.9l2.4-.9 4.8-1.8-4.8 1.8c-.7.3-1.6.6-2.4.9-.5.2-1.1.4-1.6.6.6-.2 1.1-.4 1.6-.6zm13.6-5.7c-1.2.6-2.3 1.2-3.5 1.8 1.2-.6 2.3-1.2 3.5-1.8zm5.9-3c-1.5.8-3.1 1.6-4.6 2.4 1.5-.8 3-1.6 4.6-2.4zm16.7-11.4c.3-.2.6-.5.9-.8-.3.3-.6.5-.9.8-1.3 1.1-2.6 2.1-3.9 3.1 1.3-1.1 2.6-2.1 3.9-3.1zm-42.8-51.9v-11.6 11.6zm51.1-4h-47.1v-3.6h1.8c5.4 0 9.9-4.4 9.9-9.9 0-5.4-4.4-9.9-9.9-9.9H325c-5.4 0-9.9 4.4-9.9 9.9 0 5.4 4.4 9.9 9.9 9.9h1.8v3.6h-26.5v-63.2c0-12.1 9.9-21.9 22-21.9s21.9 9.8 21.9 21.9c0 5.4 4.4 9.9 9.9 9.9 5.4 0 9.9-4.4 9.9-9.9 0-22.9-18.7-41.6-41.7-41.6-22.9 0-41.6 18.7-41.6 41.6v63.2h-31.3v-3.6h1.8c5.4 0 9.9-4.4 9.9-9.9 0-5.4-4.4-9.9-9.9-9.9h-23.3c-5.4 0-9.9 4.4-9.9 9.9 0 5.4 4.4 9.9 9.9 9.9h1.8v3.6h-47V23.1h211v212.4zm-212.5 23.7zm6.2 34.4l.2.2c3.8 3.2 7.9 6.3 12.3 9.1.1.1.3.2.5.3 4.2 2.7 8.9 5.2 13.9 7.5.1 0 .1.1.2.1.2.1.5.2.7.4 4.6 2.1 9.5 4 14.9 5.8.2.1.3.1.5.2.3.1.6.2 1 .4 4.7 1.5 9.9 2.9 15.8 4.2.2.1.5.1.7.2.4.1.8.2 1.3.3 5.2 1.1 10.7 1.9 16.9 2.6.2 0 .5.1.7.1.4.1.8.1 1.3.2 6.6.7 13.2 1 19.6 1h.1c.6 0 1.2 0 1.7-.1.4 0 .8-.1 1.1-.1 6.6-.1 11.9-.4 16.6-.8 1.8-.2 3.4-.4 5-.7.9-.1 1.8-.3 2.7-.4l2.4-.3c2.8-.4 5.8-.8 8.6-1.4 1.8-.4 3.4-.8 5-1.2.8-.2 1.7-.4 2.5-.7.7-.2 1.4-.3 2.1-.5 2.7-.7 5.4-1.3 8.1-2.2 1.5-.5 3-1 4.3-1.6.7-.3 1.4-.6 2.2-.8l1.3-.5c2.8-1 5.8-2.1 8.6-3.4 1.3-.6 2.5-1.2 3.6-1.8l1.8-.9.2-.1c3-1.5 6.2-3.1 9.1-4.9 1.1-.7 2-1.3 2.9-2 .5-.3.9-.7 1.4-1 2.8-1.9 5.7-4 8.4-6.2.9-.7 1.6-1.5 2.3-2.2l1.1-1.1c2.4-2.2 4.9-4.6 7.1-7.3.7-.9 1.3-1.7 1.9-2.5.3-.4.5-.8.8-1.1.4-.6.8-1.1 1.3-1.7.6-.7 1.1-1.4 1.7-2.2h82.2v57.1h-396v-57.1h81.7c1.6 2.4 3.4 4.6 5 6.6l.1.1c3.4 3.6 6.8 7.1 10.6 10.4zm213.6-19.9c-1 1.4-2.1 2.7-3.1 4.1l-1.2 1.8 1.2-1.8c1.1-1.4 2.2-2.7 3.1-4.1.3-.5.6-.9.9-1.4-.2.5-.5 1-.9 1.4zm85 79.5v176.2h-188V353.2h188zm4-4v184.2-184.2zM172.8 7.4h230.7c1.6 0 3.1.7 4.1 1.7-1.1-1.1-2.5-1.7-4.1-1.7H172.8zM138.4 549c.3.9.6 1.7 1 2.5-.4-.8-.7-1.7-1-2.5zm55.5 7.2c-1 1.5-2.1 2.9-3.2 4.2-5.7 6.1-13.8 10-22.8 10s-17.1-3.8-22.7-10c-1.2-1.3-2.3-2.7-3.2-4.2-.7-1.1-1.4-2.3-2-3.5.6 1.2 1.2 2.4 2 3.5 1 1.5 2.1 2.9 3.2 4.2 5.7 6.1 13.8 10 22.7 10 9 0 17.1-3.8 22.8-10 1.1-1.4 2.2-2.8 3.2-4.2 2.2-3.3 3.7-7.1 4.5-11.1-.8 4-2.4 7.7-4.5 11.1zm184.9-7.2c.3.9.6 1.7 1 2.5-.4-.8-.7-1.7-1-2.5zm52.3 11.3c-5.7 6.1-13.8 10-22.8 10s-17.1-3.8-22.8-10c-1.2-1.3-2.3-2.7-3.2-4.2-.7-1.1-1.4-2.3-2-3.5.6 1.2 1.2 2.4 2 3.5 1 1.5 2.1 2.9 3.2 4.2 5.7 6.1 13.8 10 22.8 10s17.1-3.9 22.8-10c1.2-1.3 2.3-2.7 3.2-4.2.6-.9 1.1-1.8 1.6-2.7-.5.9-1 1.8-1.6 2.7-1 1.5-2 2.9-3.2 4.2zm6.1-9.7c.2-.5.4-1.1.6-1.6-.2.5-.4 1.1-.6 1.6zm59.7-5.7c.4-.1.7-.2 1.1-.3-.3.1-.7.3-1.1.3zm4.7-200.1v194.4c0 1.2-.4 2.3-1 3.3-.2.3-.4.6-.7.9.3-.3.5-.6.7-.9.6-.9 1-2.1 1-3.3V344.8c0-.1.1-.2.1-.4 0 .1-.1.3-.1.4zm.3-1.5c0 .3 0 .5-.1.8.1-.3.1-.5.1-.8z"/><path class="st0" d="M224.7 373.8c0-3.2-2.6-5.9-5.9-5.9h-81.6c-3.2 0-5.9 2.6-5.9 5.9 0 3.2 2.6 5.9 5.9 5.9h81.6c3.3-.1 5.9-2.7 5.9-5.9z"/><path class="st0" d="M218.8 367.9c3.2 0 5.9 2.6 5.9 5.9 0 3.2-2.6 5.9-5.9 5.9h-81.6c-3.2 0-5.9-2.6-5.9-5.9 0-3.2 2.6-5.9 5.9-5.9h81.6m0-4h-81.6c-5.4 0-9.9 4.4-9.9 9.9 0 5.4 4.4 9.9 9.9 9.9h81.6c5.4 0 9.9-4.4 9.9-9.9s-4.4-9.9-9.9-9.9zM357.4 379.6H439c3.2 0 5.9-2.6 5.9-5.9 0-3.2-2.6-5.9-5.9-5.9h-81.6c-3.2 0-5.9 2.6-5.9 5.9 0 3.3 2.6 5.9 5.9 5.9z"/><path class="st0" d="M438.9 367.9c3.2 0 5.9 2.6 5.9 5.9 0 3.2-2.6 5.9-5.9 5.9h-81.6c-3.2 0-5.9-2.6-5.9-5.9 0-3.2 2.6-5.9 5.9-5.9h81.6m0-4h-81.6c-5.4 0-9.9 4.4-9.9 9.9 0 5.4 4.4 9.9 9.9 9.9h81.6c5.4 0 9.9-4.4 9.9-9.9s-4.4-9.9-9.9-9.9z"/><g><path class="st0" d="M209.1 80.3c1.5 0 3-.6 4.1-1.7l21-21c2.3-2.3 2.3-6 0-8.3-2.3-2.3-6-2.3-8.3 0l-21 21c-2.3 2.3-2.3 6 0 8.3 1.2 1.1 2.7 1.7 4.2 1.7z"/><path class="st0" d="M230.1 47.5c1.5 0 3 .6 4.1 1.7 2.3 2.3 2.3 6 0 8.3l-21 21c-1.1 1.1-2.7 1.7-4.1 1.7s-3-.6-4.1-1.7c-2.3-2.3-2.3-6 0-8.3l21-21c1.1-1.1 2.6-1.7 4.1-1.7m0-4c-2.6 0-5.1 1-7 2.9l-21 21c-3.8 3.8-3.8 10.1 0 13.9 1.9 1.9 4.3 2.9 7 2.9 2.6 0 5.1-1 7-2.9l21-21c3.8-3.8 3.8-10.1 0-13.9-1.9-1.8-4.4-2.9-7-2.9z"/></g><g><path class="st0" d="M213.4 113.1c1.1 1.1 2.7 1.7 4.1 1.7s3-.6 4.1-1.7l47.8-47.8c2.3-2.3 2.3-6 0-8.3-2.3-2.3-6-2.3-8.3 0l-47.8 47.8c-2.1 2.4-2.1 6.1.1 8.3z"/><path class="st0" d="M265.4 55.3c1.5 0 3 .6 4.1 1.7 2.3 2.3 2.3 6 0 8.3l-47.8 47.8c-1.1 1.1-2.6 1.7-4.1 1.7s-3-.6-4.1-1.7c-2.3-2.3-2.3-6 0-8.3L261.3 57c1.1-1.1 2.6-1.7 4.1-1.7m0-4c-2.6 0-5.1 1-7 2.9L210.6 102c-1.9 1.9-2.9 4.4-2.9 7 0 2.6 1 5.1 2.9 6.9 1.9 1.9 4.3 2.9 7 2.9s5.1-1 7-2.9l47.8-47.8c1.9-1.9 2.9-4.4 2.9-7 0-2.6-1-5.1-2.9-6.9-1.8-1.8-4.3-2.9-7-2.9z"/></g></svg>