<svg xmlns="http://www.w3.org/2000/svg" viewBox="0 0 576.4 577.7"><path d="M205.2 307.9v108.9c0 14.9 12.3 27 27.5 27h111c15.2 0 27.5-12.1 27.5-27V307.9c0-14.9-12.3-27-27.5-27h-111c-15.2 0-27.5 12.1-27.5 27zm27.5 113.8c-2.7 0-5-2.2-5-4.9v-52.1l48.8-.3.6 57.3h-44.4zm116-4.9c0 2.7-2.2 4.9-5 4.9h-44l-.6-57.4 49.6-.3v52.8zm0-108.9v34l-121 .7v-34.7c0-2.7 2.3-4.9 5-4.9h111c2.7 0 5 2.2 5 4.9zm217.6-42.1c.2-.9.3-1.9.2-2.9-.2-2.9-1.5-5.7-3.7-7.7l-44.5-39c.1-.6.2-1.2.2-1.9V36.5c0-6.1-5-11.1-11.3-11.1h-73.7c-6.2 0-11.3 4.9-11.3 11.1V132L298.1 23.2c-2.8-2.4-6.5-3.3-9.9-2.6-3.4-.7-7.1.1-9.9 2.6L13.6 255.3c-2.2 2-3.6 4.7-3.7 7.7-.1 1 0 1.9.2 2.9-.7 3.3.1 6.9 2.6 9.7l39.6 43.7c1.5 1.6 3.4 2.8 5.5 3.3v192.6c0 22.8 19.7 42.2 42.9 42.2h374.9c23.3 0 42.9-19.3 42.9-42.2V322.6c2.1-.6 4-1.7 5.5-3.3l39.6-43.7c2.6-2.8 3.5-6.5 2.7-9.8zM444.7 149.3V47.5h51.2v149.1l-51.4-45.1c.2-.7.2-1.4.2-2.2zm51.4 365.9c0 10.5-9.7 20-20.4 20H100.8c-11.1 0-20.4-9.2-20.4-20V309.5l207.9-181.8 207.9 181.8v205.7zm18.7-218.9L295.7 104.7c-2.1-1.9-4.8-2.8-7.5-2.8s-5.4.9-7.5 2.8l-219 191.6-26.9-29.7v-.2l253-221.8h.9l253 221.8v.2l-26.9 29.7z" fill="#334d5f"/></svg>