<svg version="1.2" xmlns="http://www.w3.org/2000/svg" viewBox="0 0 800 800" width="800" height="800"><style>.a{fill:#0296d6}.b{fill:#0065a4}</style><path class="a" d="m311 204.1c-0.2-0.7-0.5-1.4-1-2-2.2-2.6-48.5 27.3-51.5 28.9-12.7 6.7-22.3 18-30.9 29.5-10 13.5-19.1 28.2-22 44.7-4.3 25 3.4 41.4 13.5 59.6 11.3 20.3 25.5 39.5 38.7 58.6 12.9 18.8 26.3 38.2 41.5 63.7 15.2 25.5 25.9 46.5 36.2 66.8 10.1 19.8 20.5 40.3 34.9 64.6 28 47 76.7 53 137.2 17l5.2 7.4c-1-1.8 39.6-33.3 37.5-36.5-6.9-10.9-26-16.5-36.7-23.3-96.9-62.2-169.7-169.8-196.5-281.1q-1.4-6-2.7-12.1c-5.6-26.6-4.3-55.1-3.2-82.2 0-1.2 0-2.5-0.2-3.6z"/><path fill-rule="evenodd" class="b" d="m547.5 701.2c-103.4 61.5-186.2 57.3-227.3-11.7-18.5-31-31.3-57.2-43.7-82.5-12.4-25.3-25.2-51.5-43.7-82.7-18.6-31.2-35.5-54.9-51.9-77.9-16.3-22.9-33.2-46.7-51.7-77.7-41.1-68.9-5.4-143.8 98-205.3 103.3-61.6 186.1-57.3 227.2 11.6 18.5 31.1 31.3 57.2 43.7 82.5 12.4 25.4 25.2 51.5 43.8 82.7 18.5 31.2 35.5 54.9 51.8 77.9 16.4 22.9 33.3 46.7 51.7 77.7 41.1 69 5.4 143.8-97.9 205.4zm-311.1-522.3c-94.8 56.5-127.4 120.6-91.7 180.6 18.1 30.4 34.8 53.8 50.9 76.4 16.6 23.3 33.7 47.3 52.7 79.2 18.9 31.8 31.9 58.3 44.5 83.9 12.2 25 24.8 50.8 42.9 81.2 35.8 60 107.7 61.9 202.5 5.4 94.9-56.4 127.4-120.6 91.7-180.6-18.1-30.3-34.8-53.8-50.9-76.4-16.6-23.3-33.7-47.3-52.7-79.1-18.9-31.9-31.9-58.4-44.4-84-12.3-25-24.9-50.8-43-81.2-35.7-60-107.6-61.9-202.5-5.4zm281 471.8c-70 41.7-129.1 33.2-162.5-22.9-14.8-24.8-25.3-45.6-35.5-65.7-10.2-20.1-20.8-40.8-35.6-65.8-14.9-24.9-28.1-44.1-40.9-62.6-12.8-18.5-26-37.7-40.8-62.5-33.5-56.2-12.8-112.1 56.7-153.5l0.5-0.3c69.3-41 128.1-32.4 161.5 23.5 14.8 24.9 25.3 45.6 35.5 65.7 10.2 20.1 20.8 40.9 35.6 65.8 14.9 24.9 28.1 44.1 40.9 62.6 12.8 18.6 26 37.7 40.8 62.5 33.3 56 12.9 111.9-56.2 153.2zm-254-425.2l4.7 7.7c-60.5 36-78.4 81.8-50.5 128.7 14.5 24.3 27.6 43.3 40.2 61.6 12.9 18.7 26.4 38.1 41.5 63.6 15.2 25.4 25.9 46.5 36.2 66.8 10.1 19.8 20.5 40.3 34.9 64.6 28 47 76.7 53 137.2 17 60.6-36.3 78.4-81.9 50.5-128.7-14.5-24.3-27.6-43.2-40.2-61.5-12.9-18.8-26.4-38.2-41.5-63.7-15.2-25.4-25.9-46.5-36.2-66.8-10.1-19.8-20.5-40.3-35-64.6-27.8-46.8-76.4-53-136.6-17.3z"/><path fill-rule="evenodd" class="b" d="m517.4 650.7l-0.5 0.3c-69.5 41.4-128.5 32.9-162-23.2-14.8-24.8-25.3-45.6-35.5-65.7-10.2-20.1-20.8-40.8-35.6-65.8-14.9-24.9-28.1-44.1-40.9-62.6-12.8-18.5-26-37.7-40.8-62.5-33.4-56.2-12.8-112.1 56.7-153.5 69.8-41.3 128.6-32.7 162 23.2 14.8 24.9 25.3 45.6 35.5 65.7 10.2 20.1 20.8 40.8 35.6 65.8 14.9 24.9 28.1 44.1 40.9 62.6 12.8 18.6 26 37.7 40.8 62.5 33.3 56 12.9 111.9-56.2 153.2zm-248.8-417.8c-61 36.3-78.9 82.1-51 129 14.5 24.3 27.6 43.3 40.2 61.5 12.9 18.8 26.3 38.2 41.5 63.7 15.2 25.5 25.9 46.5 36.2 66.8 10.1 19.8 20.5 40.3 34.9 64.6 28 47 76.7 53 137.2 17l5.2 7.4-4.7-7.7c60.1-36 77.9-81.6 50-128.4-14.5-24.3-27.6-43.2-40.2-61.5-12.9-18.8-26.4-38.2-41.5-63.7-15.2-25.4-25.9-46.5-36.2-66.8-10.1-19.8-20.5-40.3-35-64.6-27.8-46.8-76.4-53-136.6-17.3z"/><path fill-rule="evenodd" class="b" d="m557.3 130.4c-22.9 0-41.5-18.6-41.5-41.4 0-22.9 18.6-41.5 41.5-41.5 22.8 0 41.4 18.6 41.4 41.5 0 22.8-18.6 41.4-41.4 41.4zm0-66.9c-14.1 0-25.5 11.5-25.5 25.5 0 14 11.4 25.4 25.5 25.4 14 0 25.4-11.4 25.4-25.4 0-14-11.4-25.5-25.4-25.5z"/><path fill-rule="evenodd" class="b" d="m614.2 324.1c-31.6 0-57.2-25.7-57.2-57.3 0-31.5 25.6-57.2 57.2-57.2 31.6 0 57.2 25.7 57.2 57.2 0 31.6-25.6 57.3-57.2 57.3zm0-98.5c-22.7 0-41.2 18.5-41.2 41.2 0 22.8 18.5 41.3 41.2 41.3 22.7 0 41.2-18.5 41.2-41.3 0-22.7-18.5-41.2-41.2-41.2z"/><path fill-rule="evenodd" class="b" d="m113 531c-22.9 0-41.4-18.6-41.4-41.4 0-22.9 18.5-41.5 41.4-41.5 22.8 0 41.4 18.6 41.4 41.5 0 22.8-18.6 41.4-41.4 41.4zm0-66.9c-14 0-25.4 11.4-25.4 25.5 0 14 11.4 25.4 25.4 25.4 14 0 25.4-11.4 25.4-25.4 0-14.1-11.4-25.5-25.4-25.5z"/></svg>