<?xml version="1.0" encoding="UTF-8"?>
<svg id="Layer_1" data-name="Layer 1" xmlns="http://www.w3.org/2000/svg" viewBox="0 0 995.24 1086.8">
  <defs>
    <style>
      .cls-1 {
        font-size: 104.95px;
      }

      .cls-1, .cls-2 {
        font-family: Gilroy-Bold, Gilroy;
      }

      .cls-1, .cls-2, .cls-3 {
        fill: #0068a9;
        font-weight: 700;
      }

      .cls-4 {
        fill: #fff;
        stroke-width: 21.55px;
      }

      .cls-4, .cls-5, .cls-6 {
        stroke: #0098d8;
        stroke-miterlimit: 10;
      }

      .cls-2 {
        font-size: 151.77px;
      }

      .cls-5 {
        fill: #0098d8;
      }

      .cls-7 {
        letter-spacing: 0em;
      }

      .cls-8 {
        letter-spacing: -.01em;
      }

      .cls-3 {
        font-family: GothamRounded-Bold, 'Gotham Rounded';
        font-size: 52.33px;
      }

      .cls-9 {
        letter-spacing: 0em;
      }

      .cls-6 {
        fill: none;
        stroke-linecap: round;
        stroke-width: 13.11px;
      }
    </style>
  </defs>
  <circle class="cls-4" cx="497.62" cy="589.18" r="486.85"/>
  <path class="cls-5" d="m497.62,338.57c2.06,0,3.82,1.5,4.15,3.54.03.23,3.78,23.37,8.24,32.5,3.49,7.17,14.96,11.92,29.21,12.12,2.3.03,4.15,1.9,4.15,4.2s-1.85,4.17-4.15,4.2c-14.25.19-25.71,4.94-29.21,12.12-4.45,9.12-8.21,32.28-8.24,32.51-.33,2.04-2.09,3.54-4.15,3.54s-3.82-1.5-4.14-3.54c-.04-.23-3.79-23.38-8.25-32.51-3.5-7.17-14.97-11.92-29.22-12.12-2.3-.03-4.15-1.9-4.15-4.2s1.85-4.17,4.15-4.2c14.26-.19,25.73-4.94,29.22-12.12,4.45-9.12,8.21-32.27,8.25-32.5.32-2.04,2.08-3.54,4.14-3.54"/>
  <path class="cls-5" d="m627.15,374.32c1.03,0,1.91.75,2.08,1.77.02.11,1.89,11.69,4.12,16.25,1.75,3.59,7.48,5.96,14.61,6.06,1.15.02,2.07.95,2.07,2.1s-.93,2.09-2.07,2.1c-7.12.1-12.86,2.47-14.61,6.06-2.23,4.56-4.1,16.14-4.12,16.25-.16,1.02-1.04,1.77-2.08,1.77s-1.91-.75-2.07-1.77c-.02-.11-1.89-11.69-4.12-16.25-1.75-3.59-7.49-5.96-14.61-6.06-1.15-.02-2.07-.95-2.07-2.1s.93-2.09,2.07-2.1c7.13-.1,12.86-2.47,14.61-6.06,2.23-4.56,4.1-16.14,4.12-16.25.16-1.02,1.04-1.77,2.07-1.77"/>
  <path class="cls-5" d="m372.99,374.32c1.03,0,1.91.75,2.08,1.77.02.11,1.89,11.69,4.12,16.25,1.75,3.59,7.48,5.96,14.61,6.06,1.15.02,2.07.95,2.07,2.1s-.93,2.09-2.07,2.1c-7.12.1-12.86,2.47-14.61,6.06-2.23,4.56-4.1,16.14-4.12,16.25-.16,1.02-1.04,1.77-2.08,1.77s-1.91-.75-2.07-1.77c-.02-.11-1.89-11.69-4.12-16.25-1.75-3.59-7.49-5.96-14.61-6.06-1.15-.02-2.07-.95-2.07-2.1s.93-2.09,2.07-2.1c7.13-.1,12.86-2.47,14.61-6.06,2.23-4.56,4.1-16.14,4.12-16.25.16-1.02,1.04-1.77,2.07-1.77"/>
  <path class="cls-5" d="m497.62,731.51c2.06,0,3.82,1.5,4.15,3.54.03.23,3.78,23.37,8.24,32.5,3.49,7.17,14.96,11.92,29.21,12.12,2.3.03,4.15,1.9,4.15,4.2s-1.85,4.17-4.15,4.2c-14.25.19-25.71,4.94-29.21,12.12-4.45,9.12-8.21,32.28-8.24,32.51-.33,2.04-2.09,3.54-4.15,3.54s-3.82-1.5-4.14-3.54c-.04-.23-3.79-23.38-8.25-32.51-3.5-7.17-14.97-11.92-29.22-12.12-2.3-.03-4.15-1.9-4.15-4.2s1.85-4.17,4.15-4.2c14.26-.19,25.73-4.94,29.22-12.12,4.45-9.12,8.21-32.27,8.25-32.5.32-2.04,2.08-3.54,4.14-3.54"/>
  <path class="cls-5" d="m627.15,745.16c1.03,0,1.91.75,2.08,1.77.02.11,1.89,11.69,4.12,16.25,1.75,3.59,7.48,5.96,14.61,6.06,1.15.02,2.07.95,2.07,2.1s-.93,2.09-2.07,2.1c-7.12.1-12.86,2.47-14.61,6.06-2.23,4.56-4.1,16.14-4.12,16.25-.16,1.02-1.04,1.77-2.08,1.77s-1.91-.75-2.07-1.77c-.02-.11-1.89-11.69-4.12-16.25-1.75-3.59-7.49-5.96-14.61-6.06-1.15-.02-2.07-.95-2.07-2.1s.93-2.09,2.07-2.1c7.13-.1,12.86-2.47,14.61-6.06,2.23-4.56,4.1-16.14,4.12-16.25.16-1.02,1.04-1.77,2.07-1.77"/>
  <path class="cls-5" d="m372.99,745.16c1.03,0,1.91.75,2.08,1.77.02.11,1.89,11.69,4.12,16.25,1.75,3.59,7.48,5.96,14.61,6.06,1.15.02,2.07.95,2.07,2.1s-.93,2.09-2.07,2.1c-7.12.1-12.86,2.47-14.61,6.06-2.23,4.56-4.1,16.14-4.12,16.25-.16,1.02-1.04,1.77-2.08,1.77s-1.91-.75-2.07-1.77c-.02-.11-1.89-11.69-4.12-16.25-1.75-3.59-7.49-5.96-14.61-6.06-1.15-.02-2.07-.95-2.07-2.1s.93-2.09,2.07-2.1c7.13-.1,12.86-2.47,14.61-6.06,2.23-4.56,4.1-16.14,4.12-16.25.16-1.02,1.04-1.77,2.07-1.77"/>
  <text class="cls-1" transform="translate(247.52 350.81) rotate(-37.61)"><tspan x="0" y="0">P</tspan></text>
  <text class="cls-1" transform="translate(294.2 314.44) rotate(-28.31)"><tspan x="0" y="0">R</tspan></text>
  <text class="cls-1" transform="translate(346.97 284.63) rotate(-17.64)"><tspan x="0" y="0">O</tspan></text>
  <text class="cls-1" transform="translate(424.33 261.92) rotate(-9.67)"><tspan x="0" y="0"> </tspan></text>
  <text class="cls-1" transform="translate(447.81 256.12) rotate(-2.19)"><tspan x="0" y="0">C</tspan></text>
  <text class="cls-1" transform="translate(520.34 254.07) rotate(7)"><tspan x="0" y="0">L</tspan></text>
  <text class="cls-1" transform="translate(571.25 260.18) rotate(15.29)"><tspan x="0" y="0">E</tspan></text>
  <text class="cls-1" transform="translate(629.99 276.07) rotate(25.77)"><tspan x="0" y="0">A</tspan></text>
  <text class="cls-1" transform="translate(695.16 307.75) rotate(36.77)"><tspan x="0" y="0">N</tspan></text>
  <path class="cls-6" d="m772.36,699.87c-43.84,108.71-150.33,185.43-274.74,185.43s-232.58-77.94-275.77-188.01"/>
  <path class="cls-6" d="m221.88,481c43.2-110.04,150.38-187.95,275.74-187.95s227.9,74.58,272.85,180.86"/>
  <line class="cls-6" x1="60.91" y1="481" x2="938.66" y2="481"/>
  <line class="cls-6" x1="60.91" y1="697.29" x2="938.66" y2="697.29"/>
  <text class="cls-3" transform="translate(377.54 972.48) rotate(15.13)"><tspan x="0" y="0">E</tspan></text>
  <text class="cls-3" transform="translate(414.37 982.26) rotate(9.8)"><tspan x="0" y="0">S</tspan></text>
  <text class="cls-3" transform="translate(449.46 988.23) rotate(4.73)"><tspan x="0" y="0">T</tspan></text>
  <text class="cls-3" transform="translate(479.71 990.58) rotate(1.81)"><tspan x="0" y="0">.</tspan></text>
  <text class="cls-3" transform="translate(496 991.08) rotate(-.54)"><tspan x="0" y="0"> </tspan></text>
  <text class="cls-3" transform="translate(513.37 990.95) rotate(-3.46)"><tspan x="0" y="0">1</tspan></text>
  <text class="cls-3" transform="translate(537.92 989.62) rotate(-7.86)"><tspan x="0" y="0">9</tspan></text>
  <text class="cls-3" transform="translate(575.28 984.31) rotate(-13.27)"><tspan x="0" y="0">9</tspan></text>
  <text class="cls-3" transform="translate(611.31 975.65) rotate(-18.43)"><tspan x="0" y="0">7</tspan></text>
  <text class="cls-2" transform="translate(181.33 641.23)"><tspan x="0" y="0">P</tspan><tspan class="cls-7" x="89.54" y="0">R</tspan><tspan x="181.52" y="0">OM</tspan><tspan class="cls-8" x="425.41" y="0">I</tspan><tspan class="cls-9" x="464.42" y="0">S</tspan><tspan x="552.14" y="0">E</tspan></text>
</svg>