<svg version="1.2" xmlns="http://www.w3.org/2000/svg" viewBox="0 0 800 800" width="800" height="800"><style>.a{fill:#0065a4}.b{fill:none;stroke:#156a9a;stroke-width:11.9}.c{fill:#0296d6}</style><path class="a" d="m748.3 694.5c-4.4 0-7.9-3.5-8-7.9-0.2-9.5-1.5-18.3-3.9-26.1-2.9-9.5-5.7-15.3-11.6-17.2-6.6-2.2-13.9-3.7-20.9-5.1l-5.5-1c-33.9-7-71.9-12.5-119.5-17.4-9.2-1-12.4-6.5-14.1-9.5l-1.4-2.8-143.6-468.9c-2.1-6.5-14.8-40.4-43.8-48.5-29.5-8.2-57.5 16.3-77.8 34.2-17.8 15.7-54.6 48.1-46.9 82 5.3 23.2 30.5 41.7 52.7 47.9 10.7 3 18.3 2.5 26.4 1.9 10.2-0.7 20.8-1.4 35.4 5.3 28 12.8 40 39.4 42.2 44.6 18.9 46.2-13.2 89.1-14.5 90.9-2.7 3.5-7.7 4.2-11.3 1.5-3.5-2.7-4.2-7.7-1.5-11.2 0.3-0.4 28-37.3 12.5-75.2-1.8-4.2-11.6-25.7-34.1-36.1-10.9-5-18.3-4.5-27.6-3.8-8.7 0.6-18.5 1.3-31.8-2.5-25.9-7.3-57-29.1-64-59.7-9.8-43.2 31.8-79.9 51.9-97.6 21.8-19.2 54.6-48.3 92.7-37.6 35.8 10 51 47.7 54.8 59l143.6 468.7 1.9 1.4c48.1 5 86.6 10.6 121 17.7l5.4 1c7.5 1.5 15.3 3.1 22.9 5.6 14.8 4.9 19.4 19.7 21.8 27.7 2.9 9.3 4.4 19.6 4.6 30.5 0.1 4.4-3.4 8.1-7.9 8.2q0 0-0.1 0z"/><path class="b" d=""/><path class="c" d="m61 496.5c-18 6.3-4.6-64.2 6.6-78 16.7-20.4 38.6-26.7 48.3-29.1 33.9-8.8 67.5 3.6 99.9 12.9 52 15 104.7 28.5 155.7 46.7 36.4 12.9 71.3 33.4 94.5 64.8 24.1 32.7 40.2 87 23 125.7-11.1 25.1-64.5 52.5-57.4 37.8 17-35.3 20.8-65.9-15.8-122.8-34.9-54.3-104.2-81.5-149.6-88.4-88.7-13.5-88.8-10.5-205.2 30.4z"/><path class="a" d="m434.2 692.8c-3.3 0-6.4-2-7.5-5.4-1.5-4.1 0.8-8.7 4.9-10.1 23.1-8 40.8-22.7 48.8-40.6 15.8-35.5 0.4-87.1-22.2-117.7-19.7-26.8-50.2-47.6-90.7-62.1-38.1-13.6-78-24.7-116.6-35.5-12.9-3.6-25.8-7.3-38.7-11l-11-3.2c-27.8-8.3-56.7-16.9-84.7-9.7-7.8 2-28.6 7.4-44 26.5-16.5 20.5-16.8 44.5-16.2 53.9 0.3 4.4-3 8.2-7.4 8.5-4.3 0.3-8.2-3.1-8.5-7.5-1-13.9 0.4-41 19.7-65 18.7-23.2 43.2-29.5 52.4-31.9 32.3-8.3 63.3 1 93.3 9.9l10.9 3.2c12.8 3.7 25.6 7.3 38.5 10.9 38.9 10.8 79 22.1 117.7 35.9 43.5 15.5 76.6 38.2 98.2 67.6 25.9 35.1 42.4 92.3 23.9 133.7-9.8 21.9-31 39.8-58.2 49.2q-1.3 0.4-2.6 0.4z"/><path class="c" d="m534 683.6c-6.9-1.4-2.4-22.1 4.1-36.1 5.5-11.6 13.1-18.5 16-21 11-9.3 21.6-16.1 36.5-14.6 22.9 2.2 45.6 5.7 68.2 9.6 14.1 2.5 28.2 4.5 42.2 7.4 11 2.2 25.2 3.5 33.7 11.7 16.2 15.7 17.6 43.9 13.2 45.6-2.3 0.9-6.6 7.3-13.5-0.5-15-17.1-34-22.9-54.5-28.8-29.7-8.6-57.8-16.8-86.4-5.9-38.1 14.5-53.4 33.8-59.5 32.6z"/><path class="a" d="m526.4 687.8c-1.1-5.6-2.2-27 4.3-43.2 3.4-8.6 9.6-16.8 18.2-24.1 11.3-9.7 24.4-18.3 42.5-16.6 20.3 2 42.1 5.1 68.8 9.8l13.2 2.2c9.8 1.6 19.5 3.2 29.1 5.2l5.5 1c10.4 1.9 23.4 4.2 32.2 12.8 10.1 9.7 15.2 26.5 15.7 51.2l-16 0.3c-0.4-20-4-33.4-10.8-40-5.3-5.2-15.2-7-24-8.5l-5.8-1.1c-9.4-2-19-3.5-28.5-5.1l-13.4-2.3c-26.2-4.5-47.7-7.6-67.6-9.5-11.8-1.2-20 3.8-30.5 12.8-6.7 5.6-11.3 11.6-13.7 17.8-4.8 12-4.3 30.1-3.5 34.2z"/><path class="c" d="m156.6 584.3c0 23.9-19.4 43.2-43.2 43.2-23.9 0-43.2-19.3-43.2-43.2 0-23.8 19.3-43.2 43.2-43.2 23.8 0 43.2 19.4 43.2 43.2z"/><path fill-rule="evenodd" class="a" d="m113.4 688.5c-57.5 0-104.2-46.7-104.2-104.2 0-57.4 46.7-104.2 104.2-104.2 57.4 0 104.1 46.8 104.1 104.2 0 57.5-46.7 104.2-104.1 104.2zm0-192.4c-48.7 0-88.2 39.6-88.2 88.2 0 48.7 39.5 88.2 88.2 88.2 48.6 0 88.1-39.5 88.1-88.2 0-48.6-39.5-88.2-88.1-88.2z"/><path class="a" d="m6.8 692.8c-4.4 0-8-3.6-8-8 0.1-4.4 3.6-8 8-8h0.1l786.3 1.7c4.4 0 8 3.6 8 8-0.1 4.4-3.6 8-8 8h-0.1"/></svg>