<svg height="800" viewBox="0 0 800 800" width="800" xmlns="http://www.w3.org/2000/svg"><path d="m647.1 745.5h-492c-16.5 0-29.8-13.4-29.8-29.8l-.1-376.4c0-5.7.9-12.3 7.5-17.9l256.4-219.2c6.9-5.8 16.8-5.8 23.7.1l119.1 102c44.3 38 88.6 75.9 133 113.7 8.1 6.9 11.5 14.2 11.5 24.4-.3 100-.3 200-.3 300v73.6c0 21.8-7.6 29.5-29 29.5zm-246.2-631.6c-.5 0-.9.2-1.3.5h-.1l-256.4 219.2c-1.4 1.1-1.9 1.9-1.9 5.7l.1 376.4c0 7.6 6.2 13.8 13.8 13.8h492c12.1 0 13-.3 13-13.5v-73.6c0-100 0-200 .3-300 0-5.5-1.4-8.3-5.9-12.2-44.4-37.8-88.7-75.8-133-113.7l-119.1-102.1c-.4-.3-1-.5-1.5-.5zm-.2 541.5c-4.4 0-8.8-.7-12.4-2.2-74.1-31.8-121.7-87.2-141.4-164.7-4.8-18.8-6.1-38.4-7.2-58.6-.9-16.5-.6-33.3-.4-49.4l.2-15.3c.1-7.3 2.9-14 8.1-18.9 5.3-5.1 12.5-7.6 20-7.3 37.2 1.5 69.5-9.4 98.9-33.6 4.6-3.8 9.4-7.3 14.2-10.8l4.7-3.4c10.6-7.9 19.8-8 30.5-.2 4 3 8.1 6 12.1 9 8.5 6.4 17.4 13.1 26.3 18.8 22.9 14.7 48.7 21.2 78.9 20.1 7.5-.3 16 .2 22 5.9s6.8 14.5 6.8 22.3v28.7 16.4c1.4 37.6-3.7 71.6-14.9 101.3-24.6 64.9-69.7 111.9-134.1 139.6-3.5 1.6-7.9 2.3-12.3 2.3zm-134.3-300.5c-3 0-5.8 1.1-7.8 3-1.4 1.3-3.1 3.7-3.1 7.4l-.2 15.4c-.2 15.9-.4 32.4.4 48.4 1 19.3 2.3 38.1 6.7 55.5 18.5 72.3 62.9 124.1 132.2 153.9 3 1.2 9.1 1.2 12.1 0 60.3-26 102.5-69.9 125.4-130.6 10.5-27.7 15.2-59.8 13.9-95.3v-.3-16.5-28.7c0-7.8-1.2-10.1-1.9-10.8-.7-.6-3-1.8-10.3-1.4-32.9 1.3-62.7-6.3-88.1-22.6-9.5-6.1-18.6-12.9-27.3-19.5-4-2.9-7.9-5.9-11.9-8.8-5.1-3.7-6.6-3.7-11.6.1l-4.7 3.4c-4.6 3.4-9.2 6.7-13.6 10.3-32.1 26.4-69.1 38.7-109.7 37.1q-.2 0-.5 0z" fill="#0065a4" fill-rule="evenodd"/><path d="m275.6 379.3c21.6-4.8 40.9-7.8 59.4-13.4 22.5-6.7 41.5-20.5 59.7-35.1 4.4-3.6 7.5-3.7 12 0 23.2 18.6 48 34.4 77.5 40.6 12.9 2.7 26.1 4.1 39.7 6.1 0 0 .5.6.5 1.2-.4 24.5.6 49.1-1.6 73.4-4.5 50.3-26.4 92.6-63 127.3-15.9 15.1-33.9 27.1-54 35.9-2.9 1.3-7.4 1.4-10.2 0-63.6-30.1-102.8-80.1-114.9-149.1-5.1-29-3.7-59.1-5.1-86.9z" fill="#0296d6"/><path d="m795 391.5c-1.8 0-3.7-.7-5.2-2l-389.8-333.9c-.7-.7-1.8-.6-2.5 0l-387.3 333.9c-3.4 2.9-8.4 2.5-11.3-.8-2.9-3.4-2.5-8.4.9-11.3l387.2-333.9c6.8-5.9 16.7-5.9 23.5 0l389.7 333.9c3.4 2.9 3.8 7.9.9 11.3-1.6 1.8-3.8 2.8-6.1 2.8z" fill="#0065a4"/></svg>